<svg xmlns="http://www.w3.org/2000/svg" xmlns:xlink="http://www.w3.org/1999/xlink" contentStyleType="text/css" data-diagram-type="DESCRIPTION" height="614px" preserveAspectRatio="none" style="width:731px;height:614px;background:#FFFFFF;" version="1.1" viewBox="0 0 731 614" width="731px" zoomAndPan="magnify"><defs/><g><!--cluster MQTT--><g class="cluster" data-entity="MQTT" data-source-line="3" data-uid="ent0002" id="cluster_MQTT"><path d="M91.5,6 L137.4326,6 A3.75,3.75 0 0 1 139.9326,8.5 L146.9326,28.2969 L198.5,28.2969 A2.5,2.5 0 0 1 201,30.7969 L201,90.8 A2.5,2.5 0 0 1 198.5,93.3 L91.5,93.3 A2.5,2.5 0 0 1 89,90.8 L89,8.5 A2.5,2.5 0 0 1 91.5,6" fill="none" style="stroke:#000000;stroke-width:1.5;"/><line style="stroke:#000000;stroke-width:1.5;" x1="89" x2="146.9326" y1="28.2969" y2="28.2969"/><text fill="#000000" font-family="sans-serif" font-size="14" font-weight="bold" lengthAdjust="spacing" textLength="44.9326" x="93" y="20.9951">MQTT</text></g><!--cluster RabbitMQ--><g class="cluster" data-entity="RabbitMQ" data-source-line="7" data-uid="ent0004" id="cluster_RabbitMQ"><path d="M8.5,198.6 L87.0947,198.6 A3.75,3.75 0 0 1 89.5947,201.1 L96.5947,220.8969 L371.5,220.8969 A2.5,2.5 0 0 1 374,223.3969 L374,395.99 A2.5,2.5 0 0 1 371.5,398.49 L8.5,398.49 A2.5,2.5 0 0 1 6,395.99 L6,201.1 A2.5,2.5 0 0 1 8.5,198.6" fill="none" style="stroke:#000000;stroke-width:1.5;"/><line style="stroke:#000000;stroke-width:1.5;" x1="6" x2="96.5947" y1="220.8969" y2="220.8969"/><text fill="#000000" font-family="sans-serif" font-size="14" font-weight="bold" lengthAdjust="spacing" textLength="77.5947" x="10" y="213.5951">RabbitMQ</text></g><!--cluster MongoDB--><g class="cluster" data-entity="MongoDB" data-source-line="14" data-uid="ent0009" id="cluster_MongoDB"><path d="M8,504.78 C8,494.78 361,494.78 361,494.78 C361,494.78 714,494.78 714,504.78 L714,587.08 C714,597.08 361,597.08 361,597.08 C361,597.08 8,597.08 8,587.08 L8,504.78" fill="none" style="stroke:#181818;stroke-width:1;"/><path d="M8,504.78 C8,514.78 361,514.78 361,514.78 C361,514.78 714,514.78 714,504.78" fill="none" style="stroke:#181818;stroke-width:1;"/><text fill="#000000" font-family="sans-serif" font-size="14" font-weight="bold" lengthAdjust="spacing" textLength="75.4482" x="323.2759" y="529.7751">MongoDB</text></g><!--entity mqtt--><g class="entity" data-entity="mqtt" data-source-line="4" data-uid="ent0003" id="entity_mqtt"><rect fill="#F1F1F1" height="36.2969" rx="2.5" ry="2.5" style="stroke:#181818;stroke-width:0.5;" width="79.6709" x="105.16" y="41"/><text fill="#000000" font-family="sans-serif" font-size="14" lengthAdjust="spacing" textLength="59.6709" x="115.16" y="63.9951">rtl433-in</text></g><!--entity rme--><g class="entity" data-entity="rme" data-source-line="8" data-uid="ent0005" id="entity_rme"><path d="M91.795,241.8998 C96.7067,236.0218 101.1786,235.5191 105.3416,242.6779 C108.2345,234.8985 115.6224,235.2392 120.078,240.974 C124.6164,235.5659 128.5208,235.1485 132.8505,241.2065 C136.0983,234.6101 141.5599,233.8583 145.8526,240.1526 C149.555,233.6727 156.3338,233.5932 159.4026,240.7808 C164.5762,233.4383 169.8889,234.6386 173.9687,241.8739 C177.3248,235.9447 182.7644,234.7108 186.6146,241.3779 C191.5921,235.851 195.9719,236.2207 199.9553,242.5011 C206.3649,246.8117 205.3224,250.9604 199.5205,254.8408 C206.0201,257.5605 206.1921,261.7649 201.3541,266.2989 C205.9488,269.1645 205.9924,274.5231 201.2905,277.3352 C206.2888,281.948 205.6342,286.0984 199.1649,288.5348 C195.6847,296.0211 191.5069,296.1198 186.015,290.5629 C182.5009,296.1406 178.1755,297.6879 173.4733,291.8705 C170.4334,299.074 164.2691,301.3456 158.8242,294.3521 C154.5671,300.0421 150.5957,301.5553 145.5904,295.1722 C141.4975,301.4476 136.249,300.2834 133.0588,294.2529 C127.8048,300.8789 121.2213,298.916 118.3711,291.7019 C113.4321,298.0231 108.6,296.1747 105.2376,290.0396 C100.8593,295.1377 96.6066,296.0479 92.7393,289.4916 C85.9278,287.9814 85.0004,283.4072 89.0809,278.3277 C81.884,274.4231 82.0184,270.3687 87.7216,265.1349 C83.4269,261.3298 84.3233,256.9128 89.9947,255.4457 C84.6909,251.1916 85.8806,244.663 91.795,241.8998" fill="#F1F1F1" style="stroke:#181818;stroke-width:0.5;"/><text fill="#000000" font-family="sans-serif" font-size="14" font-style="italic" lengthAdjust="spacing" textLength="51.6592" x="119.1679" y="261.5951">&#171;topic&#187;</text><text fill="#000000" font-family="sans-serif" font-size="14" lengthAdjust="spacing" textLength="93.7549" x="98.12" y="277.892">raw-message</text></g><!--entity qmodel--><g class="entity" data-entity="qmodel" data-source-line="9" data-uid="ent0006" id="entity_qmodel"><path d="M26.75,356.19 L129.2539,356.19 C134.2539,356.19 134.2539,369.3384 134.2539,369.3384 C134.2539,369.3384 134.2539,382.4869 129.2539,382.4869 L26.75,382.4869 C21.75,382.4869 21.75,369.3384 21.75,369.3384 C21.75,369.3384 21.75,356.19 26.75,356.19" fill="#F1F1F1" style="stroke:#181818;stroke-width:0.5;"/><path d="M129.2539,356.19 C124.2539,356.19 124.2539,369.3384 124.2539,369.3384 C124.2539,382.4869 129.2539,382.4869 129.2539,382.4869" fill="none" style="stroke:#181818;stroke-width:0.5;"/><text fill="#000000" font-family="sans-serif" font-size="14" lengthAdjust="spacing" textLength="92.5039" x="26.75" y="374.1851">model-queue</text></g><!--entity qrecommend--><g class="entity" data-entity="qrecommend" data-source-line="10" data-uid="ent0007" id="entity_qrecommend"><path d="M174.71,356.19 L353.2979,356.19 C358.2979,356.19 358.2979,369.3384 358.2979,369.3384 C358.2979,369.3384 358.2979,382.4869 353.2979,382.4869 L174.71,382.4869 C169.71,382.4869 169.71,369.3384 169.71,369.3384 C169.71,369.3384 169.71,356.19 174.71,356.19" fill="#F1F1F1" style="stroke:#181818;stroke-width:0.5;"/><path d="M353.2979,356.19 C348.2979,356.19 348.2979,369.3384 348.2979,369.3384 C348.2979,382.4869 353.2979,382.4869 353.2979,382.4869" fill="none" style="stroke:#181818;stroke-width:0.5;"/><text fill="#000000" font-family="sans-serif" font-size="14" lengthAdjust="spacing" textLength="168.5879" x="174.71" y="374.1851">recommendation-queue</text></g><!--entity qdevice--><g class="entity" data-entity="qdevice" data-source-line="11" data-uid="ent0008" id="entity_qdevice"><path d="M246.55,251.74 L351.4465,251.74 C356.4465,251.74 356.4465,264.8884 356.4465,264.8884 C356.4465,264.8884 356.4465,278.0369 351.4465,278.0369 L246.55,278.0369 C241.55,278.0369 241.55,264.8884 241.55,264.8884 C241.55,264.8884 241.55,251.74 246.55,251.74" fill="#F1F1F1" style="stroke:#181818;stroke-width:0.5;"/><path d="M351.4465,251.74 C346.4465,251.74 346.4465,264.8884 346.4465,264.8884 C346.4465,278.0369 351.4465,278.0369 351.4465,278.0369" fill="none" style="stroke:#181818;stroke-width:0.5;"/><text fill="#000000" font-family="sans-serif" font-size="14" lengthAdjust="spacing" textLength="94.8965" x="246.55" y="269.7351">device-queue</text></g><!--entity model--><g class="entity" data-entity="model" data-source-line="15" data-uid="ent0010" id="entity_model"><rect fill="#F1F1F1" height="36.2969" rx="35" ry="35" style="stroke:#181818;stroke-width:0.5;" width="102.9063" x="23.55" y="544.78"/><text fill="#000000" font-family="sans-serif" font-size="14" lengthAdjust="spacing" textLength="82.9063" x="33.55" y="567.7751">ModelEntity</text></g><!--entity anomaly--><g class="entity" data-entity="anomaly" data-source-line="16" data-uid="ent0011" id="entity_anomaly"><rect fill="#F1F1F1" height="36.2969" rx="35" ry="35" style="stroke:#181818;stroke-width:0.5;" width="122.2793" x="161.86" y="544.78"/><text fill="#000000" font-family="sans-serif" font-size="14" lengthAdjust="spacing" textLength="102.2793" x="171.86" y="567.7751">AnomalyEntity</text></g><!--entity knownpattern--><g class="entity" data-entity="knownpattern" data-source-line="17" data-uid="ent0012" id="entity_knownpattern"><rect fill="#F1F1F1" height="36.2969" rx="35" ry="35" style="stroke:#181818;stroke-width:0.5;" width="159.0566" x="319.47" y="544.78"/><text fill="#000000" font-family="sans-serif" font-size="14" lengthAdjust="spacing" textLength="139.0566" x="329.47" y="567.7751">KnownPatternEntity</text></g><!--entity recommendation--><g class="entity" data-entity="recommendation" data-source-line="18" data-uid="ent0013" id="entity_recommendation"><rect fill="#F1F1F1" height="36.2969" rx="35" ry="35" style="stroke:#181818;stroke-width:0.5;" width="184.5205" x="513.74" y="544.78"/><text fill="#000000" font-family="sans-serif" font-size="14" lengthAdjust="spacing" textLength="164.5205" x="523.74" y="567.7751">RecommendationEntity</text></g><!--entity ims--><g class="entity" data-entity="ims" data-source-line="21" data-uid="ent0014" id="entity_ims"><rect fill="#F1F1F1" height="36.2969" rx="2.5" ry="2.5" style="stroke:#181818;stroke-width:0.5;" width="103.3984" x="93.3" y="137.3"/><text fill="#000000" font-family="sans-serif" font-size="14" lengthAdjust="spacing" textLength="83.3984" x="103.3" y="160.2951">ingester-ms</text></g><!--entity mms--><g class="entity" data-entity="mms" data-source-line="22" data-uid="ent0015" id="entity_mms"><rect fill="#F1F1F1" height="36.2969" rx="2.5" ry="2.5" style="stroke:#181818;stroke-width:0.5;" width="89.5762" x="31.21" y="442.49"/><text fill="#000000" font-family="sans-serif" font-size="14" lengthAdjust="spacing" textLength="69.5762" x="41.21" y="465.4851">model-ms</text></g><!--entity rms--><g class="entity" data-entity="rms" data-source-line="23" data-uid="ent0016" id="entity_rms"><rect fill="#F1F1F1" height="36.2969" rx="2.5" ry="2.5" style="stroke:#181818;stroke-width:0.5;" width="165.6602" x="248.17" y="442.49"/><text fill="#000000" font-family="sans-serif" font-size="14" lengthAdjust="spacing" textLength="145.6602" x="258.17" y="465.4851">recommendation-ms</text></g><!--entity dms--><g class="entity" data-entity="dms" data-source-line="24" data-uid="ent0017" id="entity_dms"><rect fill="#F1F1F1" height="36.2969" rx="2.5" ry="2.5" style="stroke:#181818;stroke-width:0.5;" width="91.9688" x="391.02" y="246.74"/><text fill="#000000" font-family="sans-serif" font-size="14" lengthAdjust="spacing" textLength="71.9688" x="401.02" y="269.7351">device-ms</text></g><!--link mqtt to ims--><g class="link" data-entity-1="mqtt" data-entity-2="ims" data-source-line="26" data-uid="lnk18" id="link_mqtt_ims"><path d="M145,77.45 C145,94.35 145,113.96 145,130.94" fill="none" id="mqtt-to-ims" style="stroke:#181818;stroke-width:1;"/><polygon fill="#181818" points="145,136.94,149,127.94,145,131.94,141,127.94,145,136.94" style="stroke:#181818;stroke-width:1;"/></g><!--link ims to rme--><g class="link" data-entity-1="ims" data-entity-2="rme" data-source-line="27" data-uid="lnk19" id="link_ims_rme"><path d="M145,173.71 C145,189.73 145,207.93 145,227.23" fill="none" id="ims-to-rme" style="stroke:#181818;stroke-width:1;"/><polygon fill="#181818" points="145,233.23,149,224.23,145,228.23,141,224.23,145,233.23" style="stroke:#181818;stroke-width:1;"/></g><!--link rme to qmodel--><g class="link" data-entity-1="rme" data-entity-2="qmodel" data-source-line="28" data-uid="lnk20" id="link_rme_qmodel"><path d="M124.9,296.63 C111.95,316.43 99.0869,336.1104 89.5069,350.7404" fill="none" id="rme-to-qmodel" style="stroke:#181818;stroke-width:1;stroke-dasharray:1,3;"/><polygon fill="#181818" points="86.22,355.76,94.4968,350.4219,88.9591,351.577,87.804,346.0394,86.22,355.76" style="stroke:#181818;stroke-width:1;"/></g><!--link rme to qrecommend--><g class="link" data-entity-1="rme" data-entity-2="qrecommend" data-source-line="29" data-uid="lnk21" id="link_rme_qrecommend"><path d="M180.7,296.63 C203.71,316.43 227.8422,337.2162 244.8422,351.8462" fill="none" id="rme-to-qrecommend" style="stroke:#181818;stroke-width:1;stroke-dasharray:1,3;"/><polygon fill="#181818" points="249.39,355.76,245.1775,346.8575,245.6002,352.4985,239.9591,352.9212,249.39,355.76" style="stroke:#181818;stroke-width:1;"/></g><!--link rme to qdevice--><g class="link" data-entity-1="rme" data-entity-2="qdevice" data-source-line="30" data-uid="lnk22" id="link_rme_qdevice"><path d="M207.26,264.89 C218.61,264.89 223.96,264.89 235.31,264.89" fill="none" id="rme-to-qdevice" style="stroke:#181818;stroke-width:1;stroke-dasharray:1,3;"/><polygon fill="#181818" points="241.31,264.89,232.31,260.89,236.31,264.89,232.31,268.89,241.31,264.89" style="stroke:#181818;stroke-width:1;"/></g><!--link qmodel to mms--><g class="link" data-entity-1="qmodel" data-entity-2="mms" data-source-line="32" data-uid="lnk23" id="link_qmodel_mms"><path d="M77.72,382.75 C77.38,398.19 76.9137,418.6115 76.5237,436.1115" fill="none" id="qmodel-to-mms" style="stroke:#181818;stroke-width:1;"/><polygon fill="#181818" points="76.39,442.11,80.5895,433.2014,76.5014,437.1112,72.5915,433.0231,76.39,442.11" style="stroke:#181818;stroke-width:1;"/></g><!--link mms to model--><g class="link" data-entity-1="mms" data-entity-2="model" data-source-line="33" data-uid="lnk24" id="link_mms_model"><path d="M75.83,479.11 C75.64,497.4 75.4189,519.9803 75.2389,538.3203" fill="none" id="mms-to-model" style="stroke:#181818;stroke-width:1;"/><polygon fill="#181818" points="75.18,544.32,79.2681,535.3597,75.2291,539.3202,71.2685,535.2812,75.18,544.32" style="stroke:#181818;stroke-width:1;"/></g><!--link qrecommend to rms--><g class="link" data-entity-1="qrecommend" data-entity-2="rms" data-source-line="35" data-uid="lnk25" id="link_qrecommend_rms"><path d="M273.32,382.75 C284.89,398.19 301.1191,419.8107 314.2491,437.3107" fill="none" id="qrecommend-to-rms" style="stroke:#181818;stroke-width:1;"/><polygon fill="#181818" points="317.85,442.11,315.6482,432.5104,314.8493,438.1105,309.2491,437.3116,317.85,442.11" style="stroke:#181818;stroke-width:1;"/></g><!--link rms to anomaly--><g class="link" data-entity-1="rms" data-entity-2="anomaly" data-source-line="36" data-uid="lnk26" id="link_rms_anomaly"><path d="M310.61,479.1 C307.7,481.66 304.76,484.27 302,486.78 C280.7,506.13 261.146,524.8116 245.286,540.2016" fill="none" id="rms-to-anomaly" style="stroke:#181818;stroke-width:1;"/><polygon fill="#181818" points="240.98,544.38,250.2245,540.9831,244.5683,540.898,244.6534,535.2418,240.98,544.38" style="stroke:#181818;stroke-width:1;"/></g><!--link rms to knownpattern--><g class="link" data-entity-1="rms" data-entity-2="knownpattern" data-source-line="37" data-uid="lnk27" id="link_rms_knownpattern"><path d="M342.84,479.11 C355.25,497.4 371.2519,521.0145 383.6919,539.3545" fill="none" id="rms-to-knownpattern" style="stroke:#181818;stroke-width:1;"/><polygon fill="#181818" points="387.06,544.32,385.3182,534.6264,384.2533,540.1821,378.6976,539.1172,387.06,544.32" style="stroke:#181818;stroke-width:1;"/></g><!--link rms to recommendation--><g class="link" data-entity-1="rms" data-entity-2="recommendation" data-source-line="38" data-uid="lnk28" id="link_rms_recommendation"><path d="M414.31,466.99 C441.06,470.63 470.39,476.69 496,486.78 C530.86,500.52 561.0618,523.0936 581.9118,540.6636" fill="none" id="rms-to-recommendation" style="stroke:#181818;stroke-width:1;"/><polygon fill="#181818" points="586.5,544.53,582.1954,535.6717,582.6765,541.308,577.0402,541.7892,586.5,544.53" style="stroke:#181818;stroke-width:1;"/></g><!--link qdevice to dms--><g class="link" data-entity-1="qdevice" data-entity-2="dms" data-source-line="40" data-uid="lnk29" id="link_qdevice_dms"><path d="M356.68,264.89 C367.97,264.89 373.27,264.89 384.56,264.89" fill="none" id="qdevice-to-dms" style="stroke:#181818;stroke-width:1;"/><polygon fill="#181818" points="390.56,264.89,381.56,260.89,385.56,264.89,381.56,268.89,390.56,264.89" style="stroke:#181818;stroke-width:1;"/></g><!--SRC=[PP6xQiCm58PtFONmhYaTGw2bdKgWkMmXWs8TZ8Xrv4Wd3Q7qtQkROpaT1FR_V-Vkpne7wQJXhJM3HK3QqRq7xg0bYLqFZ0soFSiEUBFUxFSD_s6S7nprBuk5q7ZaqdDp8MA_5RcLfvEczIRJRM-lYZTEteG1xmFHyEMIxA3RrIh6EmC1krpX6cADLT2BzDD4yvA4oG-TMMC0bIHjiGOVpWGh-DOjr51MOhSXWJn97mUpsDdtjzoj9-lokB7k1vAcUmeT-tW0hsYDxEyL8hDIGvzeR_WbYS1XHPwZF6IvnhUpwQg0-TYn_yV5UAEn0nzI2UCJh8slxRpIufcvzxJE0havLDPOJ1LC5c_EXLYbMk6bxtZ8yBWuA1j6KyUWbVlzawThpImNlN8abcDJwjYsAMLoHZQbACLzI9M9yH3Z_spTe_YqKbRASX5x24F-0G00]--></g></svg>